<svg xmlns="http://www.w3.org/2000/svg" viewBox="0 0 576.15 157.96"><defs><style>.cls-1{fill:#51aaf7;}.cls-2{fill:#5ceea7;}</style></defs><title>Asset 21</title><g id="Layer_2" data-name="Layer 2"><g id="Layer_1-2" data-name="Layer 1"><path class="cls-1" d="M74.81,15.24c-11-2.69-21.69-4.29-32.58-3.93a48.19,48.19,0,0,0-16.79,3.22A14.61,14.61,0,0,0,15.86,27a70.27,70.27,0,0,0-.47,8.58c-.05,13.7.19,27.4-.08,41.1-.25,12.42,3.22,19.58,19.84,22.14,12.51,1.93,24.89.44,37.1-2.52,2.5-.6,3.57-.36,3.27,2.53a46.56,46.56,0,0,0,0,7.28c.1,1.56-.48,2.11-1.94,2.38-16.85,3.09-33.73,4.22-50.59.3-8-1.87-15.15-5.52-19.61-12.92A24.53,24.53,0,0,1,0,82.86c0-17.67,0-35.35,0-53,0-12,5.71-20.31,16.61-25.12C23.5,1.69,30.8.54,38.21.18A138,138,0,0,1,72.14,2.55c2,.41,2.84,1,2.72,3.11C74.68,8.74,74.81,11.83,74.81,15.24Z"/><path class="cls-1" d="M173.14,52.32V65.25c0,13.7,0,27.4.05,41.09,0,2.31-.29,3.26-3,3.17-6.36-.2-6.36,0-6.36-6.39,0-19.78,0-39.55-.05-59.33,0-2.38.4-3.11,3.11-3.45,7.09-.89,11.2,1.74,15,7.92,9.34,15.34,19.59,30.13,29.47,45.15.58.88,1.17,1.74,1.87,2.78.92-1.4.55-2.62.55-3.76,0-16.35.06-32.7,0-49.05,0-2.28.53-3,2.89-3,6.22.12,6.23,0,6.23,6.14,0,19.89-.05,39.77,0,59.66,0,2.52-.63,3-3.17,3.34-7,1-11-1.72-14.61-7.82-9.48-15.78-19.85-31-29.87-46.47C174.75,54.5,174.17,53.75,173.14,52.32Z"/><path class="cls-1" d="M268.38,78.81c0,9.27-.09,18.54.06,27.81,0,2.4-.72,2.89-3,2.87-7.59-.07-7.59,0-7.59-7.72,0-17,0-34,.05-51,0-2.27-.5-3-2.88-2.94-5.62.18-11.27-.16-16.88.14-3.2.17-3.65-1-3.72-3.83-.06-3,.79-3.79,3.79-3.73,10.92.19,21.85.07,32.78.07,6.07,0,12.14.11,18.21-.05,2.12-.06,2.54.61,2.51,2.59-.08,4.86,0,4.87-4.83,4.87-5.18,0-10.38.16-15.55-.07-2.63-.12-3.07.8-3,3.17C268.46,60.27,268.38,69.54,268.38,78.81Z"/><path class="cls-2" d="M476.08,75c0-10.49.08-21-.07-31.46,0-2.53.7-3.13,3.15-3.09,7.42.11,7.42,0,7.42,7.3,0,17.11.05,34.22-.06,51.33,0,2.39.45,3.2,3,3.15,9.38-.17,18.77.1,28.15-.15,3.81-.1,2.48,2.33,2.68,4.11.22,2,.14,3.39-2.78,3.35q-19.2-.28-38.41,0c-2.83,0-3.19-1-3.16-3.4C476.14,95.74,476.08,85.36,476.08,75Z"/><path class="cls-2" d="M531.76,74.9c0-10.49.06-21,0-31.46,0-2.24.47-3,2.88-3,7.67.06,7.67,0,7.67,7.71,0,17,.06,34-.06,51,0,2.53.68,3.1,3.12,3.06,9.38-.15,18.77.09,28.14-.14,3.18-.08,2.71,1.73,2.58,3.52s1.11,4-2.5,3.93c-13-.19-26-.13-39.08,0-2.21,0-2.77-.66-2.75-2.8C531.81,96.1,531.76,85.5,531.76,74.9Z"/><path class="cls-2" d="M463.87,106.05Q445.2,58.17,426.6,10.27C425.49,7.41,425,3.73,422.85,2s-6-.32-8.5-.54a37.59,37.59,0,0,1-5.48-.05c-3.45-.55-4.88,1-6.11,4.14-7.73,19.93-15.71,39.75-23.62,59.6-5.46,13.71-10.89,27.44-16.43,41.12-1,2.4-.53,3,2,2.89,3.42-.18,6.85-.16,10.27,0,2.08.1,3.06-.56,3.8-2.61,3.28-9.24,6.87-18.36,10.15-27.59.72-2,1.63-2.66,3.74-2.64,13.36.09,26.72.13,40.08,0,2.53,0,3.39,1,4.16,3.1,3.31,9.11,6.81,18.15,10.12,27.26.67,1.85,1.55,2.6,3.57,2.51a103.15,103.15,0,0,1,11.26,0C464.93,109.41,464.74,108.27,463.87,106.05ZM415.82,65.31c-6.29,0-12.59,0-18.88,0-1.94,0-2.87-.12-1.95-2.52,5.62-14.71,11.1-29.47,16.62-44.22.27-.71.38-1.58,1.29-1.74.72-.13.87.6,1.05,1.06,5.89,15.65,11.75,31.3,17.79,47.4Z"/><path class="cls-1" d="M334.17,79.09c2.37-.34,4.24-.5,6.07-.89,6.92-1.46,11.1-5.38,11.37-11.11a142.4,142.4,0,0,0-.07-14.9c-.34-5.87-3-8.77-8.62-10.21a38,38,0,0,0-5.21-.88c-10.46-1.19-21-.29-31.44-.66-2.58-.09-3.29.6-3.27,3.23.12,19.33.06,38.66.06,58,0,7.89,0,7.79,7.89,7.84,2.26,0,2.7-.71,2.66-2.78-.12-6.85-.05-13.7-.05-20.54,0-6,0-5.87,5.95-6.09a6.05,6.05,0,0,1,6.12,3.21c5.15,8.09,10.6,16,16,23.93.57.84.84,2.17,2.24,2.18,3.88,0,7.77,0,12.11,0Zm-19.36-6c-1.67.07-1.22-1.21-1.23-2.09,0-3.52,0-7.05,0-10.57s.07-7.27,0-10.9c0-1.56.37-2.13,2-2.08,5.61.19,11.23-.24,16.83.33,6.55.68,8.92,3.27,8.92,9.77,0,2.42.08,4.85,0,7.26-.17,4.25-2,6.56-6.07,7.5C328.47,73.84,321.61,72.8,314.81,73.07Z"/><path class="cls-1" d="M148,75.29c0-5.3,0-10.59,0-15.89-.06-9.11-4-14.88-12.64-17.57a54.05,54.05,0,0,0-32.86,0c-8.63,2.71-12.58,8.48-12.6,17.59q-.06,16.05,0,32.11c0,8.51,3.78,14,11.92,16.59a54.43,54.43,0,0,0,35.05-.49c7.5-2.61,11-7.79,11.14-15.78C148,86.33,148,80.81,148,75.29ZM137.88,91.07c0,5.64-2.51,9.24-7.85,10.89a37.34,37.34,0,0,1-22.46,0c-5.29-1.63-7.69-5-7.75-10.6q-.16-16,0-32.08c.06-6.62,2.85-10.25,9.32-11.84a37.6,37.6,0,0,1,19.61.2c6.33,1.81,9.08,5.52,9.14,12,0,5.18,0,10.37,0,15.55S137.94,85.78,137.88,91.07Z"/><path class="cls-1" d="M28.73,157a.38.38,0,0,1-.44.43c-.2,0-.52,0-.94,0s-.74-.05-.94-.05-.53,0-1,.05-.74,0-.95,0-.43-.19-.43-.57q0-2.19.14-6.59t.14-6.6c0-.22-.05-.33-.14-.33a.25.25,0,0,0-.24.19q-.88,1.89-4.18,10.08c-.36,1.05-.87,2.36-1.54,3.93-.08.15-.5.22-1.25.22-1.08,0-1.68-.09-1.8-.29q-.58-1.41-1.68-3.93-1.44-3.44-4.41-10.22a.64.64,0,0,0-.23-.24.46.46,0,0,0-.14.38q0,2.24.08,6.7t.08,6.7c0,.38-.15.57-.43.57s-.5,0-.9,0-.71-.05-.9-.05-.52,0-.93.05-.72,0-.93,0-.43-.1-.43-.32c0-1.29.06-3.2.18-5.76s.18-4.48.18-5.76-.06-3.32-.18-6-.18-4.66-.18-6c0-.22.13-.34.4-.38A31.16,31.16,0,0,1,8.33,133c.11,0,.27.24.48.71Q13,142.87,16,150.11c.47,1.13.75,1.7.85,1.7s.36-.46.74-1.39q2.36-5.61,6.53-16.65c.17-.45.36-.68.57-.68.39,0,1,0,1.77.07s1.39.07,1.78.07.43.14.43.41q0,2-.13,6c-.08,2.66-.13,4.65-.13,6s.05,3.17.15,5.71S28.73,155.76,28.73,157Z"/><path class="cls-1" d="M89.28,157.25c0,.14-.14.2-.41.2s-.54,0-1,0-.75-.05-1-.05-.54,0-1,.05-.77,0-1,0-.74-.87-1.24-2.62-1-2.63-1.53-2.66-1.54,0-3.34,0H76.12c-1.9,0-3,0-3.25,0-.42,0-.86.93-1.33,2.67s-.83,2.61-1.08,2.61h-3.9c-.23,0-.34-.08-.34-.24a3.12,3.12,0,0,1,.24-.78l4.24-11.6c.36-.93,1.44-3.63,3.26-8.09.32-.74.76-1.85,1.31-3.34q.21-.66.45-.66a7.48,7.48,0,0,1,1,.09,7.64,7.64,0,0,0,1,.09,8,8,0,0,0,1-.1,7.36,7.36,0,0,1,.92-.09c.11,0,.25.21.44.64q.41,1,4.1,10.44Q89.28,157.13,89.28,157.25Zm-8.07-9.56a28.61,28.61,0,0,0-1.56-4.5q-1.5-3.88-2.13-5.1-3.58,9.15-3.58,9.58,0,.59,1.32.69s.61,0,1.69,0h1.79C80.39,148.38,81.21,148.15,81.21,147.69Z"/><path class="cls-1" d="M149.84,133.54q0,2-.14,6t-.14,6c0,1.26,0,3.15,0,5.66s0,4.39,0,5.65c0,.38-.15.57-.43.57a6.7,6.7,0,0,1-.78,0c-.35,0-.61-.05-.78-.05s-.47,0-.85.05a8.31,8.31,0,0,1-.85,0c-.21,0-.46-.19-.74-.57q-3.75-5-11.35-15c-.78-1-1.24-1.58-1.37-1.7s-.17.24-.17.71q0,2.67.09,8c.06,3.57.08,6.24.08,8,0,.38-.11.57-.34.57s-.5,0-.9,0-.71-.05-.9-.05-.52,0-.93.05-.72,0-.93,0-.43-.11-.43-.34c0-1.27.06-3.18.18-5.74s.19-4.48.19-5.76-.06-3.91-.16-7.55c0-.95-.08-2.37-.17-4.26l0-.23c0-.17.13-.26.41-.27.75,0,1.34,0,1.77-.07.16,0,.47-.06.92-.14a5.18,5.18,0,0,1,.9-.1c.1,0,.28.16.54.5q4,5.47,12.19,16.28c.24.3.46.56.67.78a27.43,27.43,0,0,0,.12-3.33q0-2.25-.16-6.75t-.17-6.74c0-.38.12-.57.35-.57s.52,0,.94.05.74,0,.95,0,.55,0,1,0,.76-.05,1-.05A.33.33,0,0,1,149.84,133.54Z"/><path class="cls-1" d="M211.67,157.25c0,.14-.14.2-.41.2s-.54,0-1,0-.75-.05-1-.05-.54,0-1,.05-.77,0-1,0-.74-.87-1.24-2.62-1-2.63-1.53-2.66-1.54,0-3.34,0h-2.74c-1.9,0-3,0-3.25,0-.42,0-.86.93-1.33,2.67s-.83,2.61-1.08,2.61H189c-.23,0-.34-.08-.34-.24a3.12,3.12,0,0,1,.24-.78l4.24-11.6c.36-.93,1.44-3.63,3.26-8.09.32-.74.76-1.85,1.31-3.34q.21-.66.45-.66a7.48,7.48,0,0,1,1,.09,7.64,7.64,0,0,0,1,.09,7.85,7.85,0,0,0,.95-.1,7.36,7.36,0,0,1,.92-.09c.11,0,.25.21.44.64q.4,1,4.1,10.44Q211.67,157.13,211.67,157.25Zm-8.07-9.56a28.61,28.61,0,0,0-1.56-4.5q-1.5-3.88-2.13-5.1-3.58,9.15-3.58,9.58,0,.59,1.32.69s.61,0,1.69,0h1.79C202.78,148.38,203.6,148.15,203.6,147.69Z"/><path class="cls-1" d="M272.34,156.61c0,.25-.12.38-.43.38a4.29,4.29,0,0,1-1.26-.5,10,10,0,0,1-1.27-.7,13.07,13.07,0,0,1-7.55,2.17,10.57,10.57,0,0,1-8.38-3.81,13,13,0,0,1-3.12-8.78,13.26,13.26,0,0,1,3.06-8.9,10.55,10.55,0,0,1,8.44-3.81,11.13,11.13,0,0,1,5.13,1.25,10.3,10.3,0,0,1,3.94,3.44,1.08,1.08,0,0,1,.23.5,5.92,5.92,0,0,1-1.24,1.6c-.83.91-1.3,1.36-1.43,1.36s-.45-.35-1.06-1.05a10.9,10.9,0,0,0-2.11-2,5.87,5.87,0,0,0-3.29-1.06,6.5,6.5,0,0,0-5.37,2.74,9.91,9.91,0,0,0,.05,11.74A6.5,6.5,0,0,0,262,154a10.35,10.35,0,0,0,5.82-1.73c0-.31-.12-1.41-.29-3.29q-.21-2-.21-3.27c0-.2.13-.3.38-.3s.55,0,1,.05.77,0,1,0l1,0c.45,0,.79,0,1,0s.36.19.36.56,0,1,0,1.82-.05,1.43-.05,1.83q0,2.49.33,6.75Z"/><path class="cls-1" d="M330.76,154a3.39,3.39,0,0,1-.13.8c-.11.44-.17.71-.19.8,0,.41-.12,1-.25,1.82a.42.42,0,0,1-.45.31c-.11,0-.33,0-.66-.07a49.72,49.72,0,0,0-6.59-.31c-.85,0-2.12,0-3.81.07s-3,.06-3.81.06c-.38,0-.57-.16-.57-.5q0-1.94.21-5.82t.22-5.83q0-2-.21-7.36c0-.92-.09-2.3-.19-4.14l0-.24c0-.27.14-.4.45-.4.81,0,2,0,3.64.07s2.83.07,3.64.07,1.93,0,3.47-.07,2.7-.07,3.47-.07c.54,0,.84.17.88.5a25.23,25.23,0,0,1,.37,2.84c0,.27-.13.4-.38.4-1,0-2.47-.06-4.46-.17s-3.49-.16-4.5-.16a2.77,2.77,0,0,0-1.79.38,3,3,0,0,0-.37,1.89v2.58a8.28,8.28,0,0,0,0,1.23q.15.54.9.54l.59,0h.59q3.39,0,6.09-.12c.71,0,1.54-.08,2.5-.18.24,0,.36.08.36.32a15.53,15.53,0,0,1-.13,1.69c-.08.76-.13,1.34-.13,1.72,0,.2-.17.31-.52.31-.14,0-.65,0-1.54-.12-.65-.07-2.1-.11-4.36-.11-1.91,0-3.11,0-3.62.07a.8.8,0,0,0-.8.73c0-.08,0,.36,0,1.33v2.57c0,1.2.18,2,.55,2.25a4,4,0,0,0,2.17.36l1.9,0c.81,0,3.08-.13,6.81-.41l.26,0C330.65,153.52,330.76,153.66,330.76,154Z"/><path class="cls-1" d="M395.9,157a.38.38,0,0,1-.43.43c-.21,0-.53,0-1,0s-.73-.05-.94-.05-.53,0-.95.05-.75,0-1,0-.43-.19-.43-.57q0-2.19.14-6.59t.14-6.6c0-.22,0-.33-.14-.33a.26.26,0,0,0-.24.19q-.88,1.89-4.18,10.08c-.35,1.05-.87,2.36-1.54,3.93-.08.15-.49.22-1.24.22-1.09,0-1.69-.09-1.81-.29q-.58-1.41-1.68-3.93c-.95-2.29-2.43-5.69-4.41-10.22a.64.64,0,0,0-.23-.24.46.46,0,0,0-.13.38q0,2.24.07,6.7c.06,3,.08,5.21.08,6.7,0,.38-.14.57-.43.57s-.5,0-.9,0-.71-.05-.9-.05-.52,0-.93.05-.72,0-.93,0-.43-.1-.43-.32c0-1.29.06-3.2.18-5.76s.18-4.48.18-5.76-.06-3.32-.18-6-.18-4.66-.18-6c0-.22.13-.34.4-.38a31.16,31.16,0,0,1,3.55-.31c.11,0,.28.24.48.71q4.2,9.21,7.21,16.45c.47,1.13.75,1.7.85,1.7s.36-.46.74-1.39q2.36-5.61,6.53-16.65c.17-.45.36-.68.57-.68.39,0,1,0,1.78.07s1.38.07,1.77.07.43.14.43.41q0,2-.13,6c-.08,2.66-.13,4.65-.13,6s0,3.17.15,5.71S395.9,155.76,395.9,157Z"/><path class="cls-1" d="M453.15,154a3.39,3.39,0,0,1-.13.8c-.11.44-.17.71-.19.8,0,.41-.12,1-.25,1.82a.41.41,0,0,1-.45.31c-.11,0-.33,0-.65-.07a49.9,49.9,0,0,0-6.6-.31c-.85,0-2.12,0-3.81.07s-3,.06-3.81.06c-.38,0-.57-.16-.57-.5q0-1.94.21-5.82t.22-5.83q0-2-.21-7.36c0-.92-.08-2.3-.19-4.14l0-.24c0-.27.14-.4.45-.4.81,0,2,0,3.64.07s2.83.07,3.64.07,1.93,0,3.47-.07,2.7-.07,3.47-.07c.54,0,.84.17.88.5a25.23,25.23,0,0,1,.37,2.84c0,.27-.13.4-.38.4-1,0-2.47-.06-4.46-.17s-3.49-.16-4.5-.16a2.77,2.77,0,0,0-1.79.38,3,3,0,0,0-.37,1.89v2.58a8.28,8.28,0,0,0,.05,1.23q.16.54.9.54l.59,0h.59q3.39,0,6.1-.12c.7,0,1.53-.08,2.49-.18.24,0,.36.08.36.32a15.53,15.53,0,0,1-.13,1.69c-.08.76-.13,1.34-.13,1.72,0,.2-.17.31-.52.31-.14,0-.65,0-1.54-.12-.64-.07-2.1-.11-4.36-.11-1.91,0-3.11,0-3.62.07a.8.8,0,0,0-.8.73c0-.08,0,.36,0,1.33v2.57c0,1.2.18,2,.55,2.25a4,4,0,0,0,2.17.36l1.9,0c.81,0,3.08-.13,6.81-.41l.26,0C453,153.52,453.15,153.66,453.15,154Z"/><path class="cls-1" d="M517,133.54q0,2-.14,6t-.14,6c0,1.26,0,3.15,0,5.66s0,4.39,0,5.65c0,.38-.14.57-.43.57a6.7,6.7,0,0,1-.78,0c-.35,0-.61-.05-.78-.05s-.47,0-.85.05a8.16,8.16,0,0,1-.85,0c-.21,0-.45-.19-.74-.57q-3.75-5-11.35-15c-.78-1-1.24-1.58-1.36-1.7s-.18.24-.18.71q0,2.67.09,8t.09,8c0,.38-.12.57-.35.57s-.5,0-.9,0-.7-.05-.9-.05-.52,0-.93.05-.72,0-.92,0-.44-.11-.44-.34c0-1.27.06-3.18.19-5.74s.18-4.48.18-5.76,0-3.91-.16-7.55c0-.95-.08-2.37-.17-4.26l0-.23q0-.25.42-.27c.75,0,1.34,0,1.76-.07.16,0,.47-.06.92-.14a5.18,5.18,0,0,1,.9-.1c.1,0,.28.16.54.5q4,5.47,12.19,16.28c.24.3.47.56.67.78a26.65,26.65,0,0,0,.13-3.33q0-2.25-.17-6.75t-.16-6.74c0-.38.11-.57.34-.57s.53,0,1,.05.73,0,.94,0,.55,0,1,0,.77-.05,1-.05A.33.33,0,0,1,517,133.54Z"/><path class="cls-1" d="M576.15,136.43c0,.3-.1.45-.31.45s-2.37-.07-6.13-.21c-.1,3.53-.16,6.35-.16,8.47q0,2,.15,6t.15,6c0,.24-.17.36-.5.36s-.53,0-1,0-.75-.05-1-.05-.52,0-.95.05-.74,0-1,0a.38.38,0,0,1-.43-.43q0-2,.16-5.93t.17-6q0-3.07-.2-8.47c-3,.19-5.16.28-6.54.28-.14,0-.21-.06-.21-.17a3.55,3.55,0,0,1,.16-.9c.12-.51.2-.81.22-.9a14.18,14.18,0,0,1,.24-1.68.31.31,0,0,1,.3-.23l.21,0c4.08.24,6.78.36,8.08.36s3.05-.08,5.67-.26a17.24,17.24,0,0,0,2.23-.17c.3,0,.47.1.5.31a13.28,13.28,0,0,0,0,1.68c0,.15,0,.39.05.7S576.15,136.27,576.15,136.43Z"/></g></g></svg>