<svg xmlns="http://www.w3.org/2000/svg" viewBox="0 0 97.28 103.91"><defs><style>.cls-1{fill:#5ceea7;}</style></defs><title>Asset 19</title><g id="Layer_2" data-name="Layer 2"><g id="Layer_1-2" data-name="Layer 1"><path class="cls-1" d="M.51,99.83a6.64,6.64,0,0,0,6.12,4.08h84a6.63,6.63,0,0,0,6.63-6.63V77.38a6.64,6.64,0,0,0-13.27,0V90.65H22.57L53,60.06a6.64,6.64,0,0,0,.34-9L21,13.27H84v4.42a6.64,6.64,0,0,0,13.27,0V6.63A6.63,6.63,0,0,0,90.65,0h-84a6.63,6.63,0,0,0-5,10.94L39.24,55.05,1.93,92.6A6.64,6.64,0,0,0,.51,99.83Z"/></g></g></svg>