<svg xmlns="http://www.w3.org/2000/svg" viewBox="0 0 301.03 167.18"><defs><style>.cls-1{fill:#51aaf7;}.cls-2{fill:#5ceea7;}</style></defs><title>Asset 22</title><g id="Layer_2" data-name="Layer 2"><g id="Layer_1-2" data-name="Layer 1"><path class="cls-1" d="M25.49,153.87q0-3.87,0-7.74H131.79a6.42,6.42,0,0,1,0,7.72Z"/><path class="cls-1" d="M170.16,146.26H276.07a6.41,6.41,0,0,1,0,7.72H170.14C168,151.65,168,149,170.16,146.26Z"/><path class="cls-1" d="M166.78,129c5.47-5.55,10.92-11.13,16.43-16.65q27.24-27.22,54.53-54.42A6.39,6.39,0,0,1,243,63.26l-72.91,72.93c-1.62-.36-1.45-1.77-1.42-2.83A6.24,6.24,0,0,0,166.78,129Z"/><path class="cls-1" d="M146.87,129.05c0-34.53.15-106.52.15-106.52,1.4.16,6.22.11,7.64.16q0,53.15,0,106.29A6.77,6.77,0,0,1,146.87,129.05Z"/><path class="cls-1" d="M170.19,144.23a5.66,5.66,0,0,1,0-4.46q34.84-14.42,69.71-28.83c.43-.18.89-.3,1.33-.44,1.65.81,2.53,1.93,1.48,3.8Z"/><path class="cls-1" d="M161.81,129H157.4l23.22-56.45q2.76-6.69,5.51-13.37c1.74-.48,3.29-.5,4,1.61Q176,94.88,161.81,129Z"/><path class="cls-1" d="M135,129c-2.16-.14-3.46.49-3.1,3.05a25.69,25.69,0,0,1-.06,4.11c-4.8-4.71-9.61-9.4-14.38-14.15Q88,92.73,58.67,63.42a8,8,0,0,1,5.54-5.53Q98.29,92,132.36,126.12C133.27,127,134.1,128,135,129Z"/><path class="cls-1" d="M131.79,139.74v4.49L73.25,120.11c-4.36-1.8-8.74-3.55-13.11-5.32-.8-1.93-.39-3.33,1.76-4Z"/><path class="cls-1" d="M144.15,129h-4.46Q125.44,94.5,111.21,60c.67-1.77,1.81-2.58,3.72-1.82Z"/><path class="cls-2" d="M131.71,128.9v38.28H170V128.9Zm35.16,35.16h-32V132h32Z"/><path class="cls-2" d="M137.92,0V25.49h25.49V0Zm22,22H141.41V3.49h18.51Z"/><path class="cls-2" d="M34.69,52.22l18,18,18-18-18-18Zm31.12,0L52.72,65.31,39.63,52.22,52.72,39.13Z"/><path class="cls-2" d="M248.61,34.19l-18,18,18,18,18-18Zm0,31.12L235.52,52.22l13.09-13.09L261.7,52.22Z"/><path class="cls-2" d="M275.54,137.36v25.5H301v-25.5Zm22,22H279V140.85h18.51Z"/><path class="cls-2" d="M0,137.36v25.5H25.49v-25.5Zm22,22H3.49V140.85H22Z"/><path class="cls-2" d="M101,49.71l5.89,13,13-5.88-5.88-13ZM116,55.32l-7.57,3.43L105,51.18l7.57-3.44Z"/><path class="cls-2" d="M185.94,44.08l-5,13.33,13.33,5,5-13.34Zm6.6,14.52-7.79-2.92,2.93-7.79,7.78,2.93Z"/><path class="cls-2" d="M237.61,105.91l5.88,13,13-5.89-5.89-13Zm14.93,5.61L245,115l-3.43-7.58,7.57-3.44Z"/><path class="cls-2" d="M50.08,100.28l-5,13.33,13.33,5,5-13.33Zm6.59,14.53-7.79-2.93,2.93-7.78L59.59,107Z"/></g></g></svg>