<svg xmlns="http://www.w3.org/2000/svg" viewBox="0 0 98 98"><defs><style>.cls-1{fill:#5ceea7;}</style></defs><title>Asset 16</title><g id="Layer_2" data-name="Layer 2"><g id="Layer_1-2" data-name="Layer 1"><path class="cls-1" d="M65.33,84.39A35.36,35.36,0,0,1,34,65.33H65.33V54.44H30.41A34.82,34.82,0,0,1,29.94,49a34.71,34.71,0,0,1,.47-5.44H65.33V32.67H34A35.34,35.34,0,0,1,88.33,22.13L98,12.52A48.91,48.91,0,0,0,19.19,32.67H0V43.56H16.66a45,45,0,0,0,0,10.88H0V65.33H19.19A48.91,48.91,0,0,0,98,85.48l-9.67-9.64A35.15,35.15,0,0,1,65.33,84.39Z"/></g></g></svg>