<svg xmlns="http://www.w3.org/2000/svg" viewBox="0 0 19.39 21.54"><defs><style>.cls-1{fill:#0e64af;}</style></defs><title>Asset 11</title><g id="Layer_2" data-name="Layer 2"><g id="Layer_1-2" data-name="Layer 1"><path class="cls-1" d="M16.16,16.16H3.23V14H16.16Zm0-4.31H3.23V9.69H16.16Zm0-4.31H3.23V5.39H16.16ZM0,21.54l1.62-1.61,1.61,1.61,1.62-1.61,1.61,1.61,1.62-1.61,1.61,1.61,1.62-1.61,1.62,1.61,1.61-1.61,1.62,1.61,1.61-1.61,1.62,1.61V0L17.77,1.62,16.16,0,14.54,1.62,12.93,0,11.31,1.62,9.69,0,8.08,1.62,6.46,0,4.85,1.62,3.23,0,1.62,1.62,0,0Z"/></g></g></svg>