<svg xmlns="http://www.w3.org/2000/svg" viewBox="0 0 375.4 384.03"><defs><style>.cls-1{fill:#7dc89a;}</style></defs><title>Asset 1</title><g id="Layer_2" data-name="Layer 2"><g id="Layer_1-2" data-name="Layer 1"><path class="cls-1" d="M346,384H28c-.3-1.14-1.41-.93-2.14-1.16C9.65,378,.07,365.65.06,348.87Q-.06,213.34.06,77.8c0-18,11.81-31.58,29.48-34.73,2.78-.5,3.91-.24,3.86,3.09-.19,14.12-.18,28.24-.06,42.37C33.54,110.25,49.26,126.36,71,127c8.36.26,16.75.28,25.11,0,21.89-.77,37.49-17,37.58-39,.06-14,.1-28-.07-42,0-2.82.69-3.46,3.48-3.45q50.61.16,101.22,0c2.7,0,3.56.49,3.52,3.4q-.26,21.56-.05,43.11c.17,18.18,12.34,33.05,30.09,37.07,6.17,1.4,12.44.86,18.67.87,6.87,0,13.8.69,20.58-.64,18.4-3.59,30.77-18.75,30.95-37.86q.21-21.37,0-42.74c0-2.93,1-3.34,3.44-2.82,3.66.76,7.32,1.53,10.66,3.32,13,7,19.3,17.81,19.29,32.56q-.06,134.42,0,268.82c0,1,0,2-.07,3A34.61,34.61,0,0,1,350,382.85C348.66,383.23,347,382.59,346,384ZM187.35,177H60.62c-10.93,0-16.81,5.9-16.81,16.92q0,68.23,0,136.48c0,11,5.92,16.9,16.86,16.9H314.11c10.93,0,16.8-5.92,16.8-16.95q0-68.24,0-136.47c0-11-5.87-16.88-16.84-16.88Z"/><path class="cls-1" d="M58.24,51.42q0-18.18,0-36.35c0-10,5.07-15,14.91-15C80.26,0,87.38,0,94.5,0c7.94.06,13.57,5.44,13.6,13.33q.14,37.83,0,75.68c0,7.73-5.59,13-13.38,13.1-7.49.07-15,0-22.47,0-8.71,0-13.92-5.2-14-14C58.17,75.89,58.24,63.66,58.24,51.42Z"/><path class="cls-1" d="M316.54,51.42c0,12,0,24,0,36,0,9.73-5.07,14.76-14.77,14.78-7.24,0-14.48.06-21.73,0-7.79-.08-13.34-5.29-13.38-13.1q-.19-37.84,0-75.68c0-8,5.65-13.27,13.6-13.33C287.6,0,295,0,302.34,0c8.8,0,14.14,5.38,14.18,14.29C316.58,26.69,316.54,39.05,316.54,51.42Z"/><path class="cls-1" d="M112,203.22c4.74,0,9.48-.05,14.22,0,5.6.06,9.22,3.07,9.35,8.51q.34,15.33,0,30.68c-.11,5.13-3.38,8.43-8.57,8.55-10.22.24-20.46.26-30.68,0-5.28-.14-8.36-3.76-8.41-9.08q-.12-14.77,0-29.56c.05-5.67,3.46-9,9.14-9.08C102,203.16,107,203.22,112,203.22Z"/><path class="cls-1" d="M263.82,203.22c4.86,0,9.73-.06,14.59,0,5.67.08,9.09,3.41,9.14,9.08q.12,14.79,0,29.57c-.05,5.45-3.27,9-8.78,9.12q-15,.34-29.93,0c-5.68-.12-8.93-3.58-9-9.34q-.23-14.59,0-29.19c.09-6.08,3.57-9.21,9.79-9.26C254.34,203.19,259.08,203.22,263.82,203.22Z"/><path class="cls-1" d="M187.73,203.22c5,0,10-.07,15,0,5.21.1,8.81,3.44,8.9,8.62.16,10.11.14,20.22,0,30.32-.07,5.14-3.48,8.69-8.77,8.81q-15.15.34-30.32,0c-5.43-.14-8.69-3.8-8.74-9.23q-.14-14.59,0-29.2c0-5.81,3.56-9.25,9.36-9.32C178,203.17,182.86,203.22,187.73,203.22Z"/><path class="cls-1" d="M111.7,327c-4.74,0-9.48,0-14.22,0-6.13-.07-9.59-3.39-9.63-9.4q-.1-14.61,0-29.2c.05-5.65,3.42-9.18,9-9.26q14.77-.21,29.57,0c5.48.07,9,3.37,9.09,8.85q.3,15.15,0,30.32c-.12,5.44-3.72,8.59-9.23,8.68C121.44,327.09,116.57,327,111.7,327Z"/><path class="cls-1" d="M287.57,303.3c0,4.86.07,9.73,0,14.6-.1,5.63-3.5,9.05-9.16,9.1q-14.59.13-29.19,0c-5.68,0-9.26-3.31-9.37-9q-.29-15,0-29.94c.11-5.63,3.66-8.91,9.38-9q14.6-.15,29.2,0c5.64.08,9,3.58,9.13,9.18C287.64,293.31,287.57,298.31,287.57,303.3Z"/><path class="cls-1" d="M187.51,327c-4.74,0-9.48.05-14.22,0-6-.08-9.49-3.58-9.53-9.6-.06-9.61-.08-19.22,0-28.83,0-5.78,3.54-9.36,9.33-9.43q14.61-.16,29.21,0c5.78.07,9.27,3.65,9.32,9.44q.13,14.42,0,28.83c0,6-3.53,9.51-9.53,9.59C197.25,327.08,192.38,327,187.51,327Z"/></g></g></svg>