<?xml version="1.0" encoding="utf-8"?>
<!-- Generator: Adobe Illustrator 23.0.2, SVG Export Plug-In . SVG Version: 6.00 Build 0)  -->
<svg version="1.1" id="Layer_1" xmlns="http://www.w3.org/2000/svg" xmlns:xlink="http://www.w3.org/1999/xlink" x="0px" y="0px"
	 viewBox="0 0 375.4 384" style="enable-background:new 0 0 375.4 384;" xml:space="preserve">
<title>Asset 1</title>
<g>
	<g id="Layer_1-2">
		<path d="M346,384H28c-0.3-1.1-1.4-0.9-2.1-1.2c-16.2-4.8-25.8-17.2-25.8-34C0,258.5,0,168.2,0.1,77.8c0-18,11.8-31.6,29.5-34.7
			c2.8-0.5,3.9-0.2,3.9,3.1c-0.2,14.1-0.2,28.2-0.1,42.4c0.2,21.7,15.9,37.8,37.7,38.5c8.4,0.3,16.8,0.3,25.1,0
			c21.9-0.8,37.5-17,37.6-39c0.1-14,0.1-28-0.1-42c0-2.8,0.7-3.5,3.5-3.5c33.7,0.1,67.5,0.1,101.2,0c2.7,0,3.6,0.5,3.5,3.4
			c-0.2,14.4-0.2,28.7-0.1,43.1c0.2,18.2,12.3,33.1,30.1,37.1c6.2,1.4,12.4,0.9,18.7,0.9c6.9,0,13.8,0.7,20.6-0.6
			c18.4-3.6,30.8-18.8,31-37.9c0.1-14.2,0.1-28.5,0-42.7c0-2.9,1-3.3,3.4-2.8c3.7,0.8,7.3,1.5,10.7,3.3c13,7,19.3,17.8,19.3,32.6
			c0,89.6,0,179.2,0,268.8c0,1,0,2-0.1,3c-0.5,15.1-10.8,28.2-25.4,32.2C348.7,383.2,347,382.6,346,384z M187.4,177H60.6
			c-10.9,0-16.8,5.9-16.8,16.9c0,45.5,0,91,0,136.5c0,11,5.9,16.9,16.9,16.9h253.4c10.9,0,16.8-5.9,16.8-17c0-45.5,0-91,0-136.5
			c0-11-5.9-16.9-16.8-16.9L187.4,177z"/>
		<path d="M58.2,51.4c0-12.1,0-24.2,0-36.3c0-10,5.1-15,14.9-15C80.3,0,87.4,0,94.5,0c7.9,0.1,13.6,5.4,13.6,13.3
			c0.1,25.2,0.1,50.4,0,75.7c0,7.7-5.6,13-13.4,13.1c-7.5,0.1-15,0-22.5,0c-8.7,0-13.9-5.2-14-14C58.2,75.9,58.2,63.7,58.2,51.4z"/>
		<path d="M316.5,51.4c0,12,0,24,0,36c0,9.7-5.1,14.8-14.8,14.8c-7.2,0-14.5,0.1-21.7,0c-7.8-0.1-13.3-5.3-13.4-13.1
			c-0.1-25.2-0.1-50.5,0-75.7c0-8,5.6-13.3,13.6-13.3C287.6,0,295,0,302.3,0c8.8,0,14.1,5.4,14.2,14.3
			C316.6,26.7,316.5,39,316.5,51.4z"/>
		<path d="M112,203.2c4.7,0,9.5-0.1,14.2,0c5.6,0.1,9.2,3.1,9.4,8.5c0.2,10.2,0.2,20.4,0,30.7c-0.1,5.1-3.4,8.4-8.6,8.6
			c-10.2,0.2-20.5,0.3-30.7,0c-5.3-0.1-8.4-3.8-8.4-9.1c-0.1-9.8-0.1-19.7,0-29.6c0.1-5.7,3.5-9,9.1-9.1
			C102,203.2,107,203.2,112,203.2z"/>
		<path d="M263.8,203.2c4.9,0,9.7-0.1,14.6,0c5.7,0.1,9.1,3.4,9.1,9.1c0.1,9.9,0.1,19.7,0,29.6c0,5.4-3.3,9-8.8,9.1
			c-10,0.2-20,0.2-29.9,0c-5.7-0.1-8.9-3.6-9-9.3c-0.2-9.7-0.2-19.5,0-29.2c0.1-6.1,3.6-9.2,9.8-9.3
			C254.3,203.2,259.1,203.2,263.8,203.2z"/>
		<path d="M187.7,203.2c5,0,10-0.1,15,0c5.2,0.1,8.8,3.4,8.9,8.6c0.2,10.1,0.1,20.2,0,30.3c-0.1,5.1-3.5,8.7-8.8,8.8
			c-10.1,0.2-20.2,0.2-30.3,0c-5.4-0.1-8.7-3.8-8.7-9.2c-0.1-9.7-0.1-19.5,0-29.2c0-5.8,3.6-9.3,9.4-9.3
			C178,203.2,182.9,203.2,187.7,203.2z"/>
		<path d="M111.7,327c-4.7,0-9.5,0-14.2,0c-6.1-0.1-9.6-3.4-9.6-9.4c-0.1-9.7-0.1-19.5,0-29.2c0.1-5.6,3.4-9.2,9-9.3
			c9.8-0.1,19.7-0.1,29.6,0c5.5,0.1,9,3.4,9.1,8.9c0.2,10.1,0.2,20.2,0,30.3c-0.1,5.4-3.7,8.6-9.2,8.7
			C121.4,327.1,116.6,327,111.7,327z"/>
		<path d="M287.6,303.3c0,4.9,0.1,9.7,0,14.6c-0.1,5.6-3.5,9-9.2,9.1c-9.7,0.1-19.5,0.1-29.2,0c-5.7,0-9.3-3.3-9.4-9
			c-0.2-10-0.2-20,0-29.9c0.1-5.6,3.7-8.9,9.4-9c9.7-0.1,19.5-0.1,29.2,0c5.6,0.1,9,3.6,9.1,9.2
			C287.6,293.3,287.6,298.3,287.6,303.3z"/>
		<path d="M187.5,327c-4.7,0-9.5,0-14.2,0c-6-0.1-9.5-3.6-9.5-9.6c-0.1-9.6-0.1-19.2,0-28.8c0-5.8,3.5-9.4,9.3-9.4
			c9.7-0.1,19.5-0.1,29.2,0c5.8,0.1,9.3,3.6,9.3,9.4c0.1,9.6,0.1,19.2,0,28.8c0,6-3.5,9.5-9.5,9.6C197.3,327.1,192.4,327,187.5,327z
			"/>
	</g>
</g>
</svg>
