<svg xmlns="http://www.w3.org/2000/svg" viewBox="0 0 21.54 15.08"><defs><style>.cls-1{fill:#0e64af;}</style></defs><title>Asset 15</title><g id="Layer_2" data-name="Layer 2"><g id="Layer_1-2" data-name="Layer 1"><path class="cls-1" d="M15.62,7.54a2.7,2.7,0,1,0-2.69-2.69A2.68,2.68,0,0,0,15.62,7.54ZM7.54,6.46a3.21,3.21,0,0,0,3.22-3.23A3.23,3.23,0,1,0,7.54,6.46Zm8.08,3.23c-2,0-5.93,1-5.93,3v2.42H21.54V12.66C21.54,10.69,17.59,9.69,15.62,9.69ZM7.54,8.62C5,8.62,0,9.88,0,12.39v2.69H7.54V12.66a4.26,4.26,0,0,1,2.55-3.74A12.68,12.68,0,0,0,7.54,8.62Z"/></g></g></svg>