<svg xmlns="http://www.w3.org/2000/svg" viewBox="0 0 9.37 9.31"><defs><style>.cls-1{fill:#0e64af;}</style></defs><title>Asset 3</title><g id="Layer_2" data-name="Layer 2"><g id="Layer_1-2" data-name="Layer 1"><path class="cls-1" d="M.5,8.31H5.22a.5.5,0,0,1,.5.5.5.5,0,0,1-.5.5H.5a.5.5,0,0,1-.5-.5A.5.5,0,0,1,.5,8.31Z"/><path class="cls-1" d="M.5,6.31H5.22a.5.5,0,0,1,.5.5.5.5,0,0,1-.5.5H.5a.5.5,0,0,1-.5-.5A.5.5,0,0,1,.5,6.31Z"/><path class="cls-1" d="M.5,4.31H5.22a.5.5,0,0,1,.5.5.5.5,0,0,1-.5.5H.5a.5.5,0,0,1-.5-.5A.5.5,0,0,1,.5,4.31Z"/><path class="cls-1" d="M7.67,3.31H.5a.5.5,0,0,1-.5-.5.5.5,0,0,1,.5-.5H7.67L6.21.85a.48.48,0,0,1,0-.7.5.5,0,0,1,.71,0L9.23,2.46a.46.46,0,0,1,.12.23.13.13,0,0,1,0,.06.53.53,0,0,1,0,.25h0a.54.54,0,0,1-.1.16l-2,2a.48.48,0,0,1-.7,0,.5.5,0,0,1,0-.71Z"/></g></g></svg>