<svg xmlns="http://www.w3.org/2000/svg" xmlns:xlink="http://www.w3.org/1999/xlink" viewBox="0 0 93.37 23.08"><defs><style>.cls-1{fill:url(#linear-gradient);}.cls-2{fill:url(#linear-gradient-2);}.cls-3{fill:url(#linear-gradient-3);}.cls-4{fill:url(#linear-gradient-4);}</style><linearGradient id="linear-gradient" x1="-3.39" y1="12.53" x2="94.63" y2="4.16" gradientUnits="userSpaceOnUse"><stop offset="0" stop-color="#5ceea7"/><stop offset="1" stop-color="#51aaf7"/></linearGradient><linearGradient id="linear-gradient-2" x1="-3.24" y1="14.35" x2="94.79" y2="5.98" xlink:href="#linear-gradient"/><linearGradient id="linear-gradient-3" x1="-3.04" y1="16.63" x2="94.98" y2="8.26" xlink:href="#linear-gradient"/><linearGradient id="linear-gradient-4" x1="-2.86" y1="18.71" x2="95.16" y2="10.34" xlink:href="#linear-gradient"/></defs><title>Asset 1</title><g id="Layer_2" data-name="Layer 2"><g id="Layer_1-2" data-name="Layer 1"><polygon class="cls-1" points="5.16 0.38 0 0.38 0 22.69 16.35 22.69 16.35 18.49 5.16 18.49 5.16 0.38"/><path class="cls-2" d="M29.68,0c-7,0-12.21,4.91-12.21,11.54s5.16,11.54,12.21,11.54S41.89,18.2,41.89,11.54,36.69,0,29.68,0Zm0,18.68a6.8,6.8,0,0,1-7-7.14,6.8,6.8,0,0,1,7-7.14,6.81,6.81,0,0,1,7,7.14A6.81,6.81,0,0,1,29.68,18.68Z"/><path class="cls-3" d="M56.9,4.4a7.54,7.54,0,0,1,5.77,2.52L66,3.86A11.9,11.9,0,0,0,56.65,0C49.54,0,44.38,4.81,44.38,11.54s5.16,11.54,12.17,11.54a15.37,15.37,0,0,0,9-2.84v-9H60.85v6.53a8.18,8.18,0,0,1-4,1,6.89,6.89,0,0,1-7.24-7.14C49.6,7.3,52.57,4.4,56.9,4.4Z"/><path class="cls-4" d="M81.16,0C74.12,0,69,4.91,69,11.54s5.17,11.54,12.21,11.54S93.37,18.2,93.37,11.54,88.17,0,81.16,0Zm0,18.68a6.81,6.81,0,0,1-7-7.14,7,7,0,1,1,14,0A6.8,6.8,0,0,1,81.16,18.68Z"/></g></g></svg>