<svg xmlns="http://www.w3.org/2000/svg" viewBox="0 0 9.37 9.31"><defs><style>.cls-1{fill:#0e64af;}</style></defs><title>Asset 4</title><g id="Layer_2" data-name="Layer 2"><g id="Layer_1-2" data-name="Layer 1"><path class="cls-1" d="M8.87,8.31H4.15a.5.5,0,0,0-.5.5.5.5,0,0,0,.5.5H8.87a.5.5,0,0,0,.5-.5A.51.51,0,0,0,8.87,8.31Z"/><path class="cls-1" d="M8.87,6.31H4.15a.5.5,0,0,0-.5.5.5.5,0,0,0,.5.5H8.87a.5.5,0,0,0,.5-.5A.51.51,0,0,0,8.87,6.31Z"/><path class="cls-1" d="M8.87,4.31H4.15a.5.5,0,0,0-.5.5.5.5,0,0,0,.5.5H8.87a.5.5,0,0,0,.5-.5A.51.51,0,0,0,8.87,4.31Z"/><path class="cls-1" d="M1.7,3.31H8.87a.5.5,0,0,0,.5-.5.51.51,0,0,0-.5-.5H1.7L3.16.85a.5.5,0,0,0,0-.7.5.5,0,0,0-.71,0L.14,2.46A.4.4,0,0,0,0,2.69a.13.13,0,0,0,0,.06A.43.43,0,0,0,0,3H0a.39.39,0,0,0,.1.16l2,2a.47.47,0,0,0,.35.15.49.49,0,0,0,.35-.15.5.5,0,0,0,0-.71Z"/></g></g></svg>