<svg xmlns="http://www.w3.org/2000/svg" viewBox="0 0 21.85 22.47"><defs><style>.cls-1{fill:#bdbebf;}</style></defs><title>Asset 7</title><g id="Layer_2" data-name="Layer 2"><g id="Layer_1-2" data-name="Layer 1"><path class="cls-1" d="M19.28,12.33a7.68,7.68,0,0,0,.07-1.09,6.55,6.55,0,0,0-.08-1.1l2.37-1.85a.58.58,0,0,0,.14-.72L19.54,3.68a.57.57,0,0,0-.69-.25l-2.8,1.12a8.29,8.29,0,0,0-1.89-1.09l-.43-3A.56.56,0,0,0,13.17,0H8.68a.55.55,0,0,0-.55.48l-.42,3a8.69,8.69,0,0,0-1.9,1.09L3,3.43a.55.55,0,0,0-.69.25L.08,7.57a.56.56,0,0,0,.14.72L2.6,10.14a6.62,6.62,0,0,0-.1,1.1,7.88,7.88,0,0,0,.08,1.09L.21,14.19a.57.57,0,0,0-.14.71l2.24,3.89a.57.57,0,0,0,.69.26l2.8-1.13A8.33,8.33,0,0,0,7.69,19l.43,3a.56.56,0,0,0,.56.47h4.49a.54.54,0,0,0,.55-.47l.42-3a8.34,8.34,0,0,0,1.9-1.1l2.79,1.13a.55.55,0,0,0,.69-.26l2.25-3.89a.54.54,0,0,0-.14-.71Zm-8.35,3.12a4.22,4.22,0,1,1,4.21-4.21A4.23,4.23,0,0,1,10.93,15.45Z"/></g></g></svg>