<svg xmlns="http://www.w3.org/2000/svg" viewBox="0 0 21.54 21.54"><defs><style>.cls-1{fill:#0e64af;}</style></defs><title>Asset 13</title><g id="Layer_2" data-name="Layer 2"><g id="Layer_1-2" data-name="Layer 1"><path class="cls-1" d="M6.46,17.23a2.16,2.16,0,1,0,2.16,2.16A2.15,2.15,0,0,0,6.46,17.23ZM0,0V2.15H2.15L6,10.33,4.58,13a2.11,2.11,0,0,0-.27,1,2.16,2.16,0,0,0,2.15,2.16H19.39V14H6.92a.26.26,0,0,1-.27-.27l0-.13,1-1.75h8a2.15,2.15,0,0,0,1.89-1.11l3.85-7a1,1,0,0,0,.13-.52,1.08,1.08,0,0,0-1.07-1.08H4.53L3.52,0ZM17.23,17.23a2.16,2.16,0,1,0,2.16,2.16A2.15,2.15,0,0,0,17.23,17.23Z"/></g></g></svg>